<svg xmlns="http://www.w3.org/2000/svg" viewBox="0 0 900 650">
 <defs><pattern id="h" width="28" height="28" patternUnits="userSpaceOnUse" patternTransform="rotate(35)"><path d="M0 0v28" stroke="#adb3b8" stroke-width="2"/></pattern></defs>
 <rect width="900" height="650" fill="#fff"/><path d="M650 0h250v650H505l145-195zM0 455h330v195H0z" fill="#d9dcde"/><path d="M650 0h250v650H505l145-195zM0 455h330v195H0z" fill="url(#h)"/>
 <path d="M0 275h315v180H0zM475 275h175v180H475z" fill="#fff" stroke="#a9afb4" stroke-width="2"/><path d="M315 330h160v225H315z" fill="#fff" stroke="#92999f" stroke-width="3"/><path d="M305 310h180v55H305z" fill="#65c8d2"/>
 <path d="M0 230h315v62M0 250h315M0 270h315" fill="none" stroke="#aaa" stroke-width="2"/><path d="M0 415v-36h40v36h40v-36h40v36h40v-36h40v36h40v-36h40v36h35M475 415v-36h35v36h35v-36h35v36h35v-36h35" fill="none" stroke="#e49a8a" stroke-width="3"/>
 <g stroke="#898f94" stroke-width="2"><path d="M650 0v455M650 60h55M650 120h55M650 180h55M650 240h55M650 300h55M650 360h55"/></g><g fill="#f1dc2c"><path d="M650 0h55v60h-55zM650 120h55v60h-55zM650 240h55v60h-55zM650 360h55v60h-55z"/></g>
 <g font-family="Noto Sans KR,Arial,sans-serif" font-weight="700" fill="#292d31"><text x="395" y="285" text-anchor="middle" font-size="36">TRENCH</text><text x="545" y="245" text-anchor="middle" font-size="28">벽체 배수판</text><text x="150" y="335" text-anchor="middle" font-size="25">무근 CONC</text><text x="150" y="365" text-anchor="middle" font-size="24">WIRE MASH</text><text x="180" y="440" text-anchor="middle" font-size="23">바닥 배수판</text><text x="560" y="365" text-anchor="middle" font-size="25">무근 CONC</text><text x="790" y="315" text-anchor="middle" font-size="30">SLAB</text></g>
</svg>
